<svg width="256" height="256" viewBox="0 0 256 256" xmlns="http://www.w3.org/2000/svg">
  <defs>
    <linearGradient id="bg" x1="0" y1="0" x2="1" y2="1">
      <stop offset="0%" stop-color="#2e1a24" />
      <stop offset="100%" stop-color="#0f131c" />
    </linearGradient>
    <linearGradient id="coat" x1="0" y1="0" x2="1" y2="1">
      <stop offset="0%" stop-color="#121722" />
      <stop offset="100%" stop-color="#06090f" />
    </linearGradient>
    <linearGradient id="scarf" x1="0" y1="0" x2="1" y2="1">
      <stop offset="0%" stop-color="#ff4b5d" />
      <stop offset="100%" stop-color="#9d1428" />
    </linearGradient>
  </defs>

  <rect width="256" height="256" rx="24" fill="url(#bg)"/>

  <!-- coat silhouette -->
  <path d="M62 222c7-58 32-88 66-88s59 30 66 88" fill="url(#coat)"/>
  <path d="M95 159l33 22 33-22 12 63H83l12-63z" fill="#0b101a" opacity="0.9"/>

  <!-- neck scarf -->
  <path d="M95 145c7-12 22-20 33-20s26 8 33 20l-18 8-15-8-15 8-18-8z" fill="url(#scarf)"/>

  <!-- face -->
  <ellipse cx="128" cy="98" rx="40" ry="44" fill="#f0d2bb"/>

  <!-- hair -->
  <path d="M84 92c3-28 26-50 57-50 23 0 43 10 55 30-8 2-20 1-30-2-7-2-13-6-19-5-11 2-17 12-24 19-7 7-15 10-39 8z" fill="#11141d"/>
  <path d="M147 49c13 4 24 13 31 26-8 0-17-1-25-4z" fill="#1e2432"/>

  <!-- mask -->
  <path d="M89 96c12-13 30-21 39-21 9 0 27 8 39 21-5 6-13 12-19 11-8-1-10-7-20-7s-12 6-20 7c-6 1-14-5-19-11z" fill="#f4f7ff"/>
  <circle cx="112" cy="98" r="5" fill="#1a1d28"/>
  <circle cx="144" cy="98" r="5" fill="#1a1d28"/>

  <!-- gloves -->
  <path d="M76 182c6-3 14-3 20 1l-5 20H69z" fill="#b21f37"/>
  <path d="M180 182c-6-3-14-3-20 1l5 20h22z" fill="#b21f37"/>

  <!-- subtle highlight -->
  <path d="M54 48c35-30 101-39 158-14" stroke="rgba(255,255,255,0.15)" stroke-width="3" fill="none"/>
</svg>
